<?xml version="1.0" standalone="no"?>
<!DOCTYPE svg PUBLIC "-//W3C//DTD SVG 20010904//EN"
 "http://www.w3.org/TR/2001/REC-SVG-20010904/DTD/svg10.dtd">
<svg version="1.0" xmlns="http://www.w3.org/2000/svg"
 width="512.000000pt" height="512.000000pt" viewBox="0 0 512.000000 512.000000"
 preserveAspectRatio="xMidYMid meet">
<metadata>
Created by potrace 1.14, written by Peter Selinger 2001-2017
</metadata>
<g transform="translate(0.000000,512.000000) scale(0.100000,-0.100000)"
fill="#000000" stroke="none">
<path d="M2069 5056 c-2 -2 -28 -7 -57 -10 -73 -8 -203 -39 -292 -72 -318
-114 -609 -364 -773 -664 -66 -122 -131 -307 -151 -435 -3 -16 -8 -50 -12 -75
-4 -25 -8 -218 -9 -430 l-2 -385 -233 -605 c-128 -333 -243 -632 -255 -665
-35 -93 -144 -378 -155 -400 -5 -11 -23 -59 -41 -107 -30 -82 -31 -89 -19
-133 49 -177 323 -411 697 -598 252 -127 479 -211 773 -288 55 -14 202 -47
238 -53 52 -9 85 -15 112 -21 13 -2 42 -7 65 -10 22 -3 56 -8 75 -10 263 -37
662 -41 965 -11 66 7 161 18 180 22 11 2 63 11 115 20 231 39 528 124 775 221
513 202 922 504 985 727 11 42 10 51 -14 118 -39 106 -366 959 -377 983 -5 11
-77 198 -161 415 l-151 395 -3 385 c-1 212 -4 405 -8 430 -24 172 -66 310
-139 459 -97 199 -233 362 -433 521 -133 105 -417 230 -581 255 -21 3 -50 8
-63 12 -27 7 -1044 16 -1051 9z m1252 -1520 c335 -24 581 -209 752 -564 52
-107 57 -119 152 -367 139 -360 205 -530 215 -550 45 -99 350 -908 350 -929 0
-17 -11 -39 -30 -57 -25 -26 -35 -29 -66 -24 -47 7 -64 27 -98 117 -15 40 -32
82 -36 93 -18 41 -246 625 -285 730 -13 33 -43 112 -68 175 -24 63 -73 187
-107 275 -202 520 -243 600 -372 733 -122 127 -283 191 -485 194 -100 2 -154
-6 -248 -37 -85 -28 -150 -59 -232 -112 -134 -86 -272 -86 -406 0 -158 102
-326 154 -477 150 -211 -6 -361 -66 -490 -196 -103 -103 -181 -246 -286 -517
-20 -52 -41 -106 -47 -120 -5 -14 -11 -29 -13 -35 -2 -9 -90 -235 -199 -510
-47 -121 -45 -114 -208 -535 -63 -162 -123 -314 -132 -338 -20 -48 -54 -71
-100 -66 -37 4 -75 46 -75 82 0 21 231 637 280 747 5 11 77 196 161 410 230
594 237 613 296 725 67 129 124 210 204 290 118 119 282 203 444 228 88 13
326 8 380 -7 28 -8 50 -14 50 -13 0 2 39 -13 87 -32 76 -29 138 -61 251 -129
37 -22 92 -28 127 -13 14 6 57 30 96 54 89 53 208 104 297 126 64 16 211 35
232 30 6 -2 44 -5 86 -8z m-1233 -462 c138 -39 203 -91 259 -203 27 -54 28
-62 31 -238 l4 -182 -27 -23 c-49 -43 -95 -47 -508 -47 -424 -1 -429 0 -486
58 -60 61 -65 154 -15 292 44 122 87 177 190 246 101 68 172 92 344 117 39 6
161 -6 208 -20z m1291 -5 c145 -39 285 -131 343 -225 54 -86 94 -227 85 -300
-6 -60 -46 -116 -99 -142 -42 -21 -54 -21 -458 -19 -410 2 -416 2 -457 25 -26
13 -45 32 -49 46 -3 13 -4 100 -2 193 l3 169 34 68 c20 38 53 83 77 104 111
98 336 133 523 81z m-714 -889 c51 -20 104 -70 132 -128 27 -54 28 -65 31
-219 l3 -163 -48 -1 c-53 0 -397 0 -455 0 l-36 1 -1 141 c-2 172 14 238 68
297 83 92 189 116 306 72z m-195 -1048 l0 -358 -132 1 -133 0 -1 350 c-1 193
1 353 3 358 2 4 62 7 134 7 l129 0 0 -358z m446 1 l-1 -358 -132 0 -133 -1 0
358 0 358 133 0 134 0 -1 -357z m-891 -90 c0 -166 -3 -260 -10 -264 -5 -3 -46
-5 -90 -5 l-80 1 1 178 0 178 84 84 c47 47 87 85 90 85 3 0 5 -116 5 -257z
m1249 -85 c-1 -95 -2 -175 -3 -178 -1 -7 -171 -7 -172 0 -4 16 -5 507 -1 514
2 4 43 -31 91 -78 l86 -86 -1 -172z m-1712 -72 c111 -78 47 -260 -84 -242 -77
11 -121 58 -121 130 0 52 31 102 77 122 36 16 98 11 128 -10z m2148 -5 c52
-37 69 -125 36 -176 -73 -111 -246 -63 -246 69 0 107 123 171 210 107z"/>
</g>
</svg>
